<svg version="1.1" id="Layer_1" xmlns="http://www.w3.org/2000/svg" xmlns:xlink="http://www.w3.org/1999/xlink" x="0px" y="0px"
	 width="100%" viewBox="0 0 500 500" enable-background="new 0 0 500 500" xml:space="preserve">
<path fill="#8A57FE" opacity="1.000000" stroke="none" 
	d="
M36.343437,500.634949 
	C25.174986,501.000000 14.349148,500.930939 3.525671,501.059998 
	C1.439406,501.084869 0.540403,500.720795 0.980273,498.524872 
	C1.108569,497.884399 1.000000,497.196503 1.000000,496.530334 
	C1.000000,332.822815 1.017909,169.115265 0.892998,5.407829 
	C0.889986,1.460523 1.991472,0.810866 5.587825,0.908390 
	C15.406385,1.174645 25.236902,1.000000 35.531342,1.000000 
	C37.517365,2.265185 38.074184,3.922976 38.135738,5.856511 
	C38.209976,8.188518 38.238579,10.519701 38.238628,12.851740 
	C38.242027,171.616302 38.250046,330.380859 38.190060,489.145386 
	C38.188652,492.870087 39.187439,496.838623 36.343437,500.634949 
z"/>
<path fill="#8761FC" opacity="1.000000" stroke="none" 
	d="
M36.468658,501.000000 
	C36.000004,334.645782 36.000008,168.291550 36.000008,1.468657 
	C46.687561,1.000000 57.375122,1.000000 68.531342,1.000000 
	C70.517372,2.265182 71.074165,3.922980 71.135727,5.856512 
	C71.209961,8.188519 71.238579,10.519702 71.238632,12.851741 
	C71.242012,171.616302 71.250069,330.380859 71.190056,489.145386 
	C71.188652,492.870087 72.187439,496.838623 69.343437,500.634949 
	C58.312439,501.000000 47.624878,501.000000 36.468658,501.000000 
z"/>
<path fill="#5EDCE7" opacity="1.000000" stroke="none" 
	d="
M468.656525,1.365065 
	C478.825684,1.000000 488.652435,1.075740 498.476227,0.939324 
	C500.567841,0.910279 501.458466,1.284551 501.019684,3.477150 
	C500.891479,4.117649 501.000000,4.805512 501.000000,5.471661 
	C501.000000,169.177795 500.982178,332.883911 501.106720,496.589966 
	C501.109711,500.532410 500.016754,501.206146 496.414032,501.091553 
	C487.596405,500.811188 478.763855,501.000000 469.468658,501.000000 
	C467.482605,499.734833 466.925812,498.076996 466.864227,496.143494 
	C466.789978,493.811462 466.761444,491.480286 466.761383,489.148224 
	C466.757965,330.383331 466.749939,171.618423 466.809937,12.853540 
	C466.811340,9.129195 465.812775,5.161082 468.656525,1.365065 
z"/>
<path fill="#61D4E8" opacity="1.000000" stroke="none" 
	d="
M468.531342,1.000000 
	C469.000000,167.354233 469.000000,333.708466 469.000000,500.531342 
	C459.645782,501.000000 450.291534,501.000000 440.468658,501.000000 
	C436.640228,495.456024 438.361603,489.317841 438.256134,483.490173 
	C438.034698,471.256836 438.147522,459.010437 438.194000,446.770111 
	C438.239288,434.848633 438.147705,422.927734 438.197845,411.006805 
	C438.247955,399.096100 438.243011,387.185333 438.232178,375.274719 
	C438.221191,363.189117 438.215454,351.103302 438.219360,339.017792 
	C438.223175,327.106537 438.253540,315.194977 438.242157,303.283691 
	C438.230591,291.196198 438.222717,279.108459 438.232697,267.021118 
	C438.242493,255.107025 438.235687,243.192780 438.256744,231.278625 
	C438.278412,219.024948 438.247040,206.771210 438.254791,194.517456 
	C438.262238,182.769241 438.273010,171.020752 438.237946,159.272476 
	C438.201904,147.184586 438.220642,135.096649 438.210999,123.008820 
	C438.201447,111.096390 438.226593,99.183685 438.223602,87.271141 
	C438.220551,75.183105 438.227264,63.095062 438.201355,51.006973 
	C438.175476,38.929565 438.011322,26.844673 438.311768,14.778351 
	C438.420837,10.399005 436.309967,5.386641 440.705322,1.274187 
	C450.020905,1.000000 459.041779,1.000000 468.531342,1.000000 
z"/>
<path fill="#846AFB" opacity="1.000000" stroke="none" 
	d="
M69.468658,501.000000 
	C69.000000,334.645782 69.000000,168.291550 69.000000,1.468657 
	C78.020897,1.000000 87.041786,1.000000 96.531342,1.000000 
	C98.518967,2.265304 99.082184,3.923238 99.135239,5.858612 
	C99.190041,7.858088 99.236641,9.856937 99.236954,11.856731 
	C99.261848,173.187927 99.202499,334.519135 99.264900,495.850342 
	C99.265480,497.334229 99.550613,498.867065 98.313019,500.609375 
	C88.645775,501.000000 79.291542,501.000000 69.468658,501.000000 
z"/>
<path fill="#66C4EB" opacity="1.000000" stroke="none" 
	d="
M414.277740,500.708588 
	C405.645782,501.000000 397.291534,501.000000 388.468658,501.000000 
	C386.278168,499.618866 385.887817,497.719360 385.836731,495.645752 
	C385.775146,493.147217 385.761047,490.649139 385.761017,488.150604 
	C385.759186,376.209961 385.758118,264.269348 385.764740,152.328720 
	C385.764923,148.998795 385.662811,145.664322 386.110931,141.918777 
	C386.529266,140.577866 386.686096,139.615173 386.920654,138.675110 
	C388.642792,131.772202 388.350006,131.269028 382.580841,128.599838 
	C379.969757,124.645294 381.070831,120.528046 381.017517,116.628365 
	C380.881287,106.658852 381.005737,96.683937 380.941528,86.711685 
	C380.925110,84.160454 381.183167,81.742378 382.792786,79.219398 
	C388.385986,74.807869 388.008759,71.718315 383.575989,66.198990 
	C382.622681,63.735504 382.802185,61.559536 382.794952,59.423962 
	C382.738556,42.709938 382.723328,25.995602 382.810974,9.281828 
	C382.824493,6.705575 382.261444,3.920501 384.662872,1.357630 
	C394.687561,1.000000 404.375122,1.000000 414.531342,1.000000 
	C416.854858,2.560941 417.041748,4.654548 417.038208,6.897383 
	C416.940186,68.851067 416.967163,130.804932 416.977722,192.758575 
	C416.988892,258.042450 416.957764,323.326416 417.027283,388.610382 
	C417.063995,423.085236 417.000702,457.560333 417.031677,492.035339 
	C417.034424,495.071899 416.824646,498.049835 414.277740,500.708588 
z"/>
<path fill="#63CCEA" opacity="1.000000" stroke="none" 
	d="
M414.468658,501.000000 
	C415.451233,481.080841 414.552124,461.145477 414.496918,441.212921 
	C414.449005,423.918182 414.915039,406.622467 414.926880,389.326996 
	C414.936951,374.666962 414.488892,360.006714 414.488892,345.346558 
	C414.488892,330.686401 414.926697,316.026276 414.926697,301.366119 
	C414.926697,286.705963 414.488892,272.045807 414.488892,257.385651 
	C414.488892,242.725449 414.926208,228.065262 414.926880,213.405060 
	C414.927521,198.744736 414.492950,184.084412 414.492554,169.424088 
	C414.492157,154.763992 414.923737,140.103912 414.924927,125.443802 
	C414.926117,110.783295 414.499390,96.122765 414.498962,81.462250 
	C414.498535,66.802368 414.839722,52.142818 414.944702,37.482502 
	C415.029724,25.608973 414.986389,13.734525 415.000000,1.430242 
	C423.354218,1.000000 431.708466,1.000000 440.531342,1.000000 
	C439.631683,8.144851 440.825562,15.358122 440.449158,22.539997 
	C440.082397,29.538599 440.317078,36.570541 440.347198,43.587589 
	C440.375275,50.123356 440.509583,56.658630 440.545776,63.194401 
	C440.581970,69.729774 440.565765,76.265518 440.551788,82.801056 
	C440.537445,89.497223 440.465088,96.193405 440.478882,102.889450 
	C440.492340,109.425110 440.604675,115.960510 440.633148,122.496201 
	C440.663727,129.513321 440.673798,136.530777 440.643433,143.547852 
	C440.615173,150.083588 440.499725,156.618927 440.463562,163.154663 
	C440.427399,169.690094 440.442078,176.225815 440.434113,182.761398 
	C440.425781,189.618088 440.421539,196.474792 440.407166,203.331467 
	C440.393829,209.706512 440.359894,216.081512 440.352570,222.456558 
	C440.344513,229.473785 440.335358,236.491135 440.365906,243.508255 
	C440.394348,250.043961 440.508698,256.579376 440.522156,263.115051 
	C440.535950,269.811066 440.461517,276.507172 440.447174,283.203308 
	C440.433167,289.738831 440.436340,296.274445 440.450317,302.809967 
	C440.464661,309.506104 440.532867,316.202209 440.519073,322.898224 
	C440.505585,329.433868 440.397522,335.969269 440.369019,342.504944 
	C440.338409,349.522034 440.324219,356.539429 440.354492,363.556488 
	C440.382721,370.092194 440.502258,376.627472 440.538452,383.163177 
	C440.574677,389.698578 440.556030,396.234253 440.563995,402.769806 
	C440.572357,409.626465 440.580414,416.483093 440.594818,423.339752 
	C440.608215,429.714752 440.638123,436.089752 440.645477,442.464752 
	C440.653595,449.481964 440.628418,456.499176 440.647614,463.516357 
	C440.662781,469.069092 440.782959,474.655426 440.582092,480.167114 
	C440.338226,486.858673 441.375031,493.584625 440.068634,500.620361 
	C431.645782,501.000000 423.291534,501.000000 414.468658,501.000000 
z"/>
<path fill="#8271FA" opacity="1.000000" stroke="none" 
	d="
M98.468651,501.000000 
	C96.993050,497.945251 96.985077,494.794861 96.985397,491.620300 
	C97.001991,328.392639 97.000000,165.164978 97.000000,1.468657 
	C103.687645,1.000000 110.375290,1.000000 117.531464,1.000000 
	C119.317146,2.151796 120.079041,3.564624 120.085266,5.350045 
	C120.154808,25.303900 120.702766,45.260086 119.614731,65.605835 
	C118.678413,67.901619 117.096329,68.696007 115.228401,68.982574 
	C113.123466,69.305511 111.410240,69.883812 111.261627,72.479500 
	C111.118477,74.979675 112.048447,76.562355 114.528725,77.236099 
	C115.482430,77.495163 116.271240,78.143402 117.110474,79.309891 
	C117.672089,80.440346 118.000137,81.215782 118.011040,82.058891 
	C118.202011,96.832222 118.730637,111.608009 117.551086,126.767166 
	C116.686317,128.862122 115.206985,129.560455 113.619659,130.145828 
	C111.230278,131.027008 111.131462,132.996231 111.374336,135.072266 
	C111.619514,137.167938 113.159523,137.663971 114.930458,137.810715 
	C117.081841,137.988998 119.269966,138.051910 121.064102,140.250793 
	C122.633736,143.640488 122.205276,146.853088 122.209396,149.990723 
	C122.252121,182.486343 122.232269,214.982010 122.234703,247.477676 
	C122.234978,251.143890 122.217567,254.810440 122.464478,258.921875 
	C121.360832,265.021820 122.944046,270.315521 124.694550,276.046509 
	C125.360321,279.122833 125.231705,281.794434 125.232079,284.453217 
	C125.241776,353.023499 125.257713,421.593842 125.189354,490.164032 
	C125.185966,493.556793 126.123833,497.201355 123.340897,500.638062 
	C114.979103,501.000000 106.958199,501.000000 98.468651,501.000000 
z"/>
<path fill="#68BDEC" opacity="1.000000" stroke="none" 
	d="
M387.701538,139.636444 
	C387.999939,260.059875 387.999969,380.061279 388.000000,500.531342 
	C381.978851,501.000000 375.957703,501.000000 369.468262,501.000000 
	C366.896118,499.366669 366.825348,497.021790 366.821594,494.675079 
	C366.788818,474.090424 366.639008,453.505585 366.932617,432.511200 
	C366.016296,428.824829 367.448120,426.340851 369.589111,424.058411 
	C372.188843,421.286987 374.888153,418.624878 377.247803,415.609222 
	C379.432526,412.817139 378.635590,410.961792 376.372314,408.840302 
	C373.857239,406.482819 372.695709,408.577087 371.135040,410.014130 
	C368.636597,412.314545 366.340210,415.479156 361.979492,412.486572 
	C360.455353,409.652039 360.795502,406.939697 360.794098,404.309479 
	C360.748260,318.958893 360.750031,233.608322 360.785431,148.257751 
	C360.786499,145.615051 360.554413,142.910080 362.130615,140.000885 
	C363.246338,138.719482 364.254089,138.057220 365.441772,138.071609 
	C372.776154,138.160446 380.213684,136.361008 387.701538,139.636444 
z"/>
<path fill="#7D80F7" opacity="1.000000" stroke="none" 
	d="
M174.297195,500.724915 
	C165.979095,501.000000 157.958191,501.000000 149.468643,501.000000 
	C146.894577,499.355988 146.852615,496.999420 146.810974,494.645844 
	C146.713745,489.148102 146.764343,483.649811 146.763977,478.151794 
	C146.759689,413.840149 146.760941,349.528503 146.764572,285.216858 
	C146.764725,282.385681 146.671982,279.551239 146.983261,276.252838 
	C147.064545,273.674805 148.366379,272.335449 150.095444,271.641602 
	C157.930832,268.497375 165.764847,265.032288 174.801056,268.913544 
	C176.829514,270.862335 176.847641,272.981781 176.862961,275.198303 
	C177.059082,303.570007 176.960617,331.942657 176.941208,360.313812 
	C176.922028,388.355835 176.964294,416.399109 176.835388,444.442078 
	C176.758377,461.198883 176.786972,477.963226 176.947083,494.723419 
	C176.968552,496.968842 176.644516,499.060974 174.297195,500.724915 
z"/>
<path fill="#7F79F8" opacity="1.000000" stroke="none" 
	d="
M147.315979,274.477478 
	C149.727829,276.833344 148.968994,279.479736 148.970215,281.889679 
	C149.006775,354.614014 149.000000,427.338348 149.000000,500.531342 
	C140.645767,501.000000 132.291534,501.000000 123.468651,501.000000 
	C123.009323,425.939941 123.018646,350.879852 123.040344,275.342896 
	C124.074722,273.938477 125.267143,273.325226 126.648865,273.609344 
	C132.225204,274.755920 137.747589,274.218079 143.277161,273.268280 
	C144.610382,273.039276 145.896378,273.368896 147.315979,274.477478 
z"/>
<path fill="#7A87F6" opacity="1.000000" stroke="none" 
	d="
M174.468628,501.000000 
	C175.594955,493.692627 174.272964,486.290710 174.678253,478.934906 
	C175.064087,471.932129 174.825104,464.892212 174.780975,457.869110 
	C174.722351,448.541229 174.532013,439.214050 174.502029,429.886200 
	C174.481003,423.347504 174.666626,416.808411 174.698959,410.269196 
	C174.731354,403.718994 174.705597,397.168365 174.672928,390.618073 
	C174.640320,384.078827 174.547653,377.539856 174.517761,371.000610 
	C174.485596,363.967865 174.487305,356.934937 174.490097,349.902069 
	C174.492493,343.845947 174.685867,337.800934 174.435730,331.731140 
	C174.166916,325.208588 175.276321,318.607178 174.753815,312.123230 
	C174.224884,305.559540 174.924927,299.041687 174.432266,292.475372 
	C173.896088,285.329529 174.749542,278.079376 174.997803,270.463074 
	C175.338425,269.475677 175.762161,268.942474 176.370697,268.678741 
	C181.027771,266.660400 194.258179,269.508850 198.204102,273.783630 
	C199.208252,276.825684 199.234314,279.492126 199.234589,282.162415 
	C199.241791,352.156311 199.258850,422.150238 199.194702,492.144104 
	C199.192184,494.898010 199.828766,497.872345 197.342545,500.636017 
	C189.645752,501.000000 182.291504,501.000000 174.468628,501.000000 
z"/>
<path fill="#788DF5" opacity="1.000000" stroke="none" 
	d="
M197.468277,501.000000 
	C197.021835,425.524994 197.043671,350.050018 197.091995,274.081116 
	C198.675476,272.192902 200.536270,272.342072 202.231583,272.960724 
	C208.144119,275.118225 214.646805,276.486298 217.467285,283.755737 
	C218.177933,286.998810 218.242233,289.825256 218.242081,292.663666 
	C218.238739,358.825439 218.257385,424.987183 218.192841,491.148926 
	C218.189850,494.223114 218.988602,497.537506 216.341187,500.637695 
	C209.978851,501.000000 203.957703,501.000000 197.468277,501.000000 
z"/>
<path fill="#7792F4" opacity="1.000000" stroke="none" 
	d="
M216.467606,501.000000 
	C216.022781,428.539185 216.045563,356.078400 216.096436,283.126801 
	C218.357559,281.539215 220.057724,282.712250 221.453568,284.162445 
	C227.647415,290.597321 232.194733,298.084839 235.278870,306.458282 
	C235.809418,307.898773 235.764313,309.399811 235.246216,311.318359 
	C233.856781,315.566803 235.279449,319.353455 235.275513,323.158600 
	C235.217102,379.658203 235.261185,436.157898 235.191299,492.657532 
	C235.188095,495.251068 235.747330,498.055847 233.338501,500.640869 
	C227.645065,501.000000 222.290146,501.000000 216.467606,501.000000 
z"/>
<path fill="#7597F3" opacity="1.000000" stroke="none" 
	d="
M233.468567,501.000000 
	C233.000000,439.964142 232.996811,378.928284 233.011566,317.892426 
	C233.012177,315.416534 232.666580,312.885925 233.955841,310.117981 
	C237.068268,310.032379 237.626266,312.460510 238.357758,314.628174 
	C241.332657,323.443848 243.308334,332.532745 245.392944,341.576996 
	C249.303650,358.543793 253.953568,375.329529 257.680542,392.338104 
	C258.242035,394.900574 259.253052,397.456512 258.314911,400.602203 
	C257.369049,403.938446 257.195038,406.885010 257.199890,409.903290 
	C257.244232,437.500397 257.270844,465.097717 257.185303,492.694763 
	C257.177307,495.281128 257.749573,498.080414 255.333420,500.646790 
	C247.979050,501.000000 240.958099,501.000000 233.468567,501.000000 
z"/>
<path fill="#739FF2" opacity="1.000000" stroke="none" 
	d="
M255.468658,501.000000 
	C255.000000,471.445343 255.026413,441.890656 254.968994,412.336121 
	C254.961197,408.318146 255.358902,404.411713 256.821472,400.287659 
	C259.565948,399.799805 259.981689,401.889252 260.549194,403.474030 
	C264.754425,415.217010 271.450531,425.228607 280.935516,433.356842 
	C282.589294,434.774078 284.102814,436.294403 283.978333,439.150696 
	C284.530396,458.289612 284.167755,477.004333 284.128784,495.717743 
	C284.125336,497.372437 284.035095,499.059631 282.329498,500.651367 
	C273.312439,501.000000 264.624878,501.000000 255.468658,501.000000 
z"/>
<path fill="#69BCED" opacity="1.000000" stroke="none" 
	d="
M384.531342,1.000000 
	C385.000031,22.574335 385.000031,44.148670 385.000000,66.167320 
	C384.424652,67.940826 383.367676,68.846947 381.985992,68.881607 
	C372.774292,69.112671 363.537567,70.174553 353.967773,67.931000 
	C351.841248,65.541016 351.813690,63.031811 351.803772,60.541355 
	C351.733765,42.972260 351.716949,25.402992 351.822510,7.834098 
	C351.835205,5.721196 351.578918,3.465550 353.654114,1.368273 
	C364.020905,1.000000 374.041779,1.000000 384.531342,1.000000 
z"/>
<path fill="#6DB3EE" opacity="1.000000" stroke="none" 
	d="
M353.531342,1.000000 
	C353.999847,22.574165 353.999695,44.148331 353.999329,66.166771 
	C353.423615,67.938622 352.368835,68.841148 350.987061,68.880493 
	C342.440857,69.123833 333.868530,70.151466 324.967316,67.930069 
	C322.841614,65.539413 322.813538,63.030392 322.803650,60.539959 
	C322.733856,42.971268 322.716980,25.402405 322.822510,7.833917 
	C322.835205,5.721077 322.578949,3.465475 324.654114,1.368262 
	C334.354218,1.000000 343.708466,1.000000 353.531342,1.000000 
z"/>
<path fill="#6EABEF" opacity="1.000000" stroke="none" 
	d="
M324.531342,1.000000 
	C324.999115,22.573555 324.998230,44.147110 324.996826,66.164810 
	C324.420624,67.934258 323.369781,68.834061 321.987488,68.879173 
	C314.106750,69.136444 306.198914,70.123840 297.966736,67.928909 
	C295.842072,65.537415 295.813507,63.028625 295.803619,60.538212 
	C295.734009,42.970020 295.716949,25.401653 295.822571,7.833661 
	C295.835266,5.720873 295.578979,3.465351 297.654114,1.368238 
	C306.687561,1.000000 315.375122,1.000000 324.531342,1.000000 
z"/>
<path fill="#778FF4" opacity="1.000000" stroke="none" 
	d="
M201.654144,1.368221 
	C210.687561,1.000000 219.375137,1.000000 228.531342,1.000000 
	C230.906631,2.510041 231.155411,4.634650 231.168945,6.847264 
	C231.280777,25.145689 231.288406,43.444122 231.161758,61.742489 
	C231.150177,63.416557 230.957535,65.064240 229.864105,67.006645 
	C228.985596,68.021317 228.328522,68.650978 227.501556,68.708549 
	C219.114349,69.292397 210.718643,70.062256 201.966614,67.927917 
	C199.842621,65.535728 199.813385,63.027149 199.803558,60.536743 
	C199.734161,42.968975 199.716949,25.401031 199.822525,7.833463 
	C199.835236,5.720733 199.578949,3.465236 201.654144,1.368221 
z"/>
<path fill="#7B88F6" opacity="1.000000" stroke="none" 
	d="
M201.531357,1.000000 
	C201.999573,22.574255 201.999146,44.148510 201.998627,66.167053 
	C201.333160,68.127533 200.083603,68.937393 198.518539,68.962196 
	C191.156479,69.078827 183.761612,70.088997 176.045837,67.982574 
	C174.398682,66.207359 173.834656,64.490448 174.006653,62.597149 
	C175.648132,44.527882 174.314850,26.416698 174.811646,8.332464 
	C174.874146,6.057493 174.457657,3.616519 176.658279,1.363258 
	C185.020905,1.000000 193.041809,1.000000 201.531357,1.000000 
z"/>
<path fill="#7597F3" opacity="1.000000" stroke="none" 
	d="
M229.250244,67.060455 
	C228.998337,45.049789 228.999176,23.493551 229.000000,1.468657 
	C236.687576,1.000000 244.375168,1.000000 252.531372,1.000000 
	C255.095947,2.646485 255.171890,4.999381 255.183228,7.351798 
	C255.269821,25.332378 255.281464,43.313026 255.177185,61.293591 
	C255.166519,63.132923 255.023560,64.956688 253.830475,67.053070 
	C248.662170,70.618767 243.216217,68.868530 238.027374,69.146454 
	C235.154755,69.300331 231.983688,69.889145 229.250244,67.060455 
z"/>
<path fill="#73A4F1" opacity="1.000000" stroke="none" 
	d="
M297.531372,1.000000 
	C298.000122,22.575037 298.000244,44.150074 298.000427,66.169571 
	C297.427277,67.940384 296.372894,68.815742 294.993469,68.876663 
	C288.441742,69.165993 281.860992,70.049118 274.966339,67.926796 
	C272.843231,65.533722 272.813293,63.025398 272.803467,60.535000 
	C272.734131,42.967724 272.716919,25.400274 272.822540,7.833199 
	C272.835297,5.720544 272.578949,3.465088 274.654175,1.368192 
	C282.354248,1.000000 289.708496,1.000000 297.531372,1.000000 
z"/>
<path fill="#739DF2" opacity="1.000000" stroke="none" 
	d="
M274.531433,1.000000 
	C274.998596,22.573883 274.997162,44.147766 274.994965,66.165863 
	C274.642731,67.385551 274.162628,68.253967 273.353363,68.369911 
	C266.691589,69.324409 259.998688,70.565849 253.250504,67.061951 
	C252.998199,45.049900 252.999100,23.493608 253.000000,1.468657 
	C260.020966,1.000000 267.041901,1.000000 274.531433,1.000000 
z"/>
<path fill="#7C81F7" opacity="1.000000" stroke="none" 
	d="
M176.531433,1.000000 
	C176.480621,22.592075 178.130936,44.217777 175.995209,66.199150 
	C175.329391,68.135460 174.068909,68.918655 172.506424,68.961807 
	C166.782166,69.119911 161.019470,69.990784 154.964981,67.924461 
	C152.843719,65.529976 152.813171,63.021969 152.803406,60.531670 
	C152.734451,42.965351 152.716873,25.398861 152.822586,7.832744 
	C152.835312,5.720184 152.578979,3.464855 154.654205,1.368157 
	C162.020950,1.000000 169.041901,1.000000 176.531433,1.000000 
z"/>
<path fill="#70A6F0" opacity="1.000000" stroke="none" 
	d="
M282.468628,501.000000 
	C282.000000,482.114929 281.988220,463.229858 282.017700,444.344849 
	C282.020752,442.388550 281.611206,440.351501 283.004944,438.196106 
	C284.405212,436.896545 285.782135,436.801971 286.983276,437.340424 
	C292.674957,439.892090 298.666321,441.531525 304.593567,443.378693 
	C305.883270,443.780640 306.791138,444.766968 307.420380,446.504456 
	C308.641693,450.518188 308.195374,454.195953 308.210938,457.828918 
	C308.261505,469.616394 308.294647,481.404633 308.184692,493.191711 
	C308.162079,495.619476 308.648010,498.238678 306.336670,500.642883 
	C298.312408,501.000000 290.624847,501.000000 282.468628,501.000000 
z"/>
<path fill="#6BB4EE" opacity="1.000000" stroke="none" 
	d="
M354.339783,500.638977 
	C346.312408,501.000000 338.624847,501.000000 330.468628,501.000000 
	C328.693176,499.854095 327.922668,498.454620 327.917419,496.676880 
	C327.869080,480.308105 327.255951,463.935547 328.424042,447.129669 
	C328.990265,445.544586 329.621094,444.339539 330.730438,444.060089 
	C337.893494,442.255676 344.643494,438.709747 352.722412,439.060272 
	C355.543854,440.783905 356.095856,443.144775 356.125275,445.748749 
	C356.313293,462.385376 356.283722,479.022217 356.133362,495.658783 
	C356.118378,497.318573 356.047485,499.017426 354.339783,500.638977 
z"/>
<path fill="#7E7BF8" opacity="1.000000" stroke="none" 
	d="
M154.531464,1.000000 
	C154.999069,22.572161 154.998138,44.144321 154.996887,66.160324 
	C154.328537,68.119247 153.080338,68.918594 151.512558,68.961998 
	C145.787201,69.120476 140.023834,69.988960 133.967621,67.926735 
	C131.844025,65.533379 131.813248,63.025238 131.803452,60.534752 
	C131.734344,42.967541 131.716904,25.400152 131.822586,7.833142 
	C131.835297,5.720476 131.578964,3.465045 133.654175,1.368176 
	C140.687637,1.000000 147.375290,1.000000 154.531464,1.000000 
z"/>
<path fill="#6EADEF" opacity="1.000000" stroke="none" 
	d="
M329.682190,445.449646 
	C329.997986,463.911804 329.998993,481.987244 330.000000,500.531342 
	C322.312408,501.000000 314.624847,501.000000 306.468628,501.000000 
	C306.034790,482.790405 306.069580,464.580780 306.143707,445.863434 
	C307.871399,443.542389 310.151337,443.742676 312.240234,443.854156 
	C317.954010,444.159088 323.807861,442.617340 329.682190,445.449646 
z"/>
<path fill="#8075F9" opacity="1.000000" stroke="none" 
	d="
M133.533142,1.000000 
	C133.999130,22.573059 133.998245,44.146118 133.997040,66.163208 
	C130.548660,69.845711 123.713356,70.253380 118.253883,67.068474 
	C117.998688,45.049789 117.999344,23.493551 118.000000,1.468657 
	C123.022095,1.000000 128.044189,1.000000 133.533142,1.000000 
z"/>
<path fill="#69BAED" opacity="1.000000" stroke="none" 
	d="
M354.466125,501.000000 
	C353.999847,483.133240 354.002686,465.266479 353.996185,447.399719 
	C353.995270,444.929291 354.253662,442.385040 351.993774,440.119843 
	C354.813538,433.879791 360.580627,431.570709 366.726013,429.397888 
	C369.579773,431.251617 368.976135,433.915710 368.979980,436.333466 
	C369.013977,457.576477 368.999878,478.819611 369.000000,500.531342 
	C364.310760,501.000000 359.621490,501.000000 354.466125,501.000000 
z"/>
<path fill="#FEFEFF" opacity="1.000000" stroke="none" 
	d="
M367.309631,429.231934 
	C362.316193,433.090973 357.576233,436.717285 351.934296,439.608612 
	C344.868286,442.404816 337.952057,444.580139 330.347656,445.667908 
	C322.364899,445.647858 314.711395,446.631866 306.640503,445.387268 
	C298.398804,444.061951 290.882965,441.952759 283.625519,437.959137 
	C270.340363,428.444824 261.890533,415.905212 257.291718,400.268555 
	C252.216217,379.674194 247.410278,359.351318 242.497253,339.054413 
	C240.158096,329.390747 238.118652,319.638031 234.370575,310.004089 
	C230.691956,299.257812 225.446899,289.970703 216.442993,282.774353 
	C210.825974,278.067932 204.595459,275.404846 197.503647,273.651093 
	C190.272339,271.003540 183.114548,270.236328 175.437012,269.996826 
	C165.444962,267.580231 156.897400,271.388672 147.906952,274.569336 
	C139.692749,276.095673 131.785721,277.691528 123.456696,274.879883 
	C120.684914,270.831818 117.922989,266.863434 121.002777,261.605103 
	C122.500031,256.835114 126.097824,255.475754 130.164474,255.026260 
	C133.078842,254.704117 136.037079,254.656158 139.381805,255.274780 
	C145.602158,255.800980 151.348587,256.552521 157.321381,258.341797 
	C163.829010,260.397919 169.790329,259.327942 176.090302,257.470093 
	C183.757294,255.657593 190.531387,252.406525 197.944214,249.863571 
	C206.280457,245.990005 213.474365,240.922104 221.222290,236.046967 
	C238.085739,221.411133 248.493805,203.631104 250.987427,181.535767 
	C252.299988,169.905334 252.490082,158.351654 250.166824,146.783798 
	C249.445709,143.193237 247.679855,142.162949 244.384888,142.135361 
	C236.890762,142.072662 229.389801,142.435165 221.471863,141.886536 
	C213.662079,142.423248 206.281403,142.341232 198.431183,141.950638 
	C191.314041,142.326752 184.665482,142.389038 177.541412,141.956863 
	C171.043854,142.294617 165.020950,142.395020 158.521805,141.956512 
	C152.323502,142.290146 146.600616,142.388336 140.395065,141.956238 
	C135.194687,142.312180 130.469666,142.281815 125.745705,142.148361 
	C123.968300,142.098129 122.117706,142.176819 120.362396,140.389038 
	C118.507683,139.992508 117.016914,139.876358 115.525276,139.864029 
	C108.498848,139.805984 108.923912,139.788406 108.467857,132.799866 
	C108.087044,126.964294 111.686180,127.834587 115.542038,127.685608 
	C118.396660,125.406273 121.311340,125.893036 124.639992,126.063171 
	C130.795059,125.681007 136.475876,125.628845 142.633301,126.048950 
	C152.376938,125.623642 161.644989,125.612106 171.386017,126.040176 
	C181.488129,125.607292 191.119354,125.679291 201.168762,126.006592 
	C213.553284,125.733170 225.523407,125.984596 237.491119,125.858398 
	C242.317627,125.807495 242.593155,125.188080 240.106171,121.142647 
	C232.691101,109.080910 221.655563,101.319260 209.204819,95.321732 
	C207.280975,94.395012 205.405518,93.291275 202.966797,92.560913 
	C192.584305,88.836632 182.270859,86.310875 171.471985,84.021347 
	C161.793396,83.089188 152.489151,82.591362 142.829468,81.171394 
	C136.895782,81.161865 131.403885,81.418098 125.453018,80.938423 
	C122.195763,80.831238 119.241646,81.911003 116.366135,79.474854 
	C114.685028,79.111900 113.361435,78.920860 112.061768,79.025917 
	C109.505432,79.232536 108.389793,78.167297 108.599724,75.619690 
	C108.667000,74.803238 108.697891,73.962311 108.582642,73.155838 
	C107.911255,68.457932 109.314354,65.817909 114.629448,66.812668 
	C115.419418,66.960518 116.268745,66.791199 117.544319,66.687325 
	C123.023926,66.660294 128.049820,66.714561 133.536224,66.688034 
	C140.688599,66.660194 147.380478,66.713135 154.534454,66.685127 
	C161.687668,66.660004 168.378784,66.715836 175.532166,66.692581 
	C184.354156,66.666466 192.713867,66.719437 201.536072,66.691879 
	C210.689911,66.663261 219.381256,66.715172 228.535065,66.686554 
	C236.689224,66.659958 244.380936,66.713882 252.534973,66.686996 
	C260.021362,66.660233 267.045410,66.714272 274.531799,66.689194 
	C282.354675,66.665665 289.715179,66.721260 297.538116,66.695450 
	C306.690826,66.665718 315.381134,66.717400 324.533844,66.689018 
	C334.355560,66.663635 343.714813,66.718323 353.536621,66.692017 
	C364.024414,66.665421 374.049683,66.719795 384.537445,66.692902 
	C391.460266,67.402733 387.887299,72.410851 388.632019,75.525291 
	C389.330017,78.444214 387.408234,79.274826 384.416199,79.108368 
	C382.539551,80.792648 380.621338,81.154152 378.561798,81.159630 
	C369.741455,81.183113 360.919403,81.467667 351.615814,80.967102 
	C342.426483,81.346947 333.723633,81.398460 324.538513,80.964859 
	C315.709595,81.346985 307.362274,81.395393 298.536591,80.964111 
	C287.608887,81.379135 277.158539,81.372192 266.263824,80.965775 
	C246.387665,81.179764 226.943771,81.971306 209.381073,79.960091 
	C216.514725,80.152191 225.300461,81.508347 233.982956,83.825523 
	C242.827652,86.185974 251.551193,88.860985 260.090637,92.145432 
	C261.333679,92.623528 262.536743,93.197639 263.945190,94.199997 
	C277.101624,99.433067 288.582520,106.475044 298.150940,117.060379 
	C298.961426,117.731117 298.457642,117.084030 298.827332,117.610764 
	C304.283325,125.384560 312.010834,127.056671 320.833282,125.937065 
	C321.961731,125.793854 323.118927,126.197723 324.704926,126.115906 
	C333.495178,125.566284 341.857849,125.654160 350.698486,126.047371 
	C359.944916,125.526382 368.720734,125.800148 377.493988,125.846245 
	C379.139923,125.854889 380.833099,125.869377 382.599945,127.339111 
	C390.327606,128.195526 392.088165,131.932312 388.359863,139.895950 
	C379.976135,140.013077 371.952332,139.967682 363.464050,139.990906 
	C361.469574,141.932129 359.348358,142.150665 357.146423,142.165939 
	C352.506470,142.198135 347.864563,142.386597 342.760010,141.955872 
	C336.792816,142.244553 331.295929,142.401779 325.372314,141.953217 
	C321.875183,142.274658 317.951385,140.891174 315.953217,143.338867 
	C314.051819,145.668060 316.644806,148.954376 316.931549,151.864441 
	C318.856934,171.405807 315.044189,189.485321 303.034180,205.843658 
	C295.238342,216.087219 286.233856,224.543503 275.872986,232.108032 
	C266.131348,238.618790 256.756958,245.030029 245.552277,248.923126 
	C228.332687,256.795715 210.968018,262.810577 192.383301,264.742981 
	C207.386749,262.992828 222.128952,265.597382 236.881393,267.999054 
	C239.326538,268.397125 241.763794,268.962189 244.380981,270.194885 
	C255.900833,272.083893 265.422546,277.317383 274.478790,284.405823 
	C287.977966,292.893219 295.241669,305.488220 300.305023,319.673035 
	C300.636444,320.601440 300.707001,321.622955 301.476257,322.805939 
	C304.647522,331.089264 306.055756,339.443359 308.063873,347.637726 
	C312.918488,367.447937 317.253693,387.387238 322.868225,407.007507 
	C323.000946,407.471313 323.370087,407.864197 323.866150,408.585236 
	C325.167877,410.170227 325.801575,411.711517 326.578552,413.167023 
	C329.719299,419.050323 334.413757,422.399536 341.634033,422.249817 
	C347.587524,421.831604 352.468445,419.561768 357.027527,416.433502 
	C359.049622,415.046021 360.930634,413.316895 363.978668,413.281586 
	C367.254608,411.498444 369.456818,408.991730 371.574310,406.450592 
	C373.180054,404.523682 374.573883,404.018036 376.358368,406.135925 
	C377.103119,407.019745 377.927460,407.896118 378.876709,408.537384 
	C382.411041,410.924866 381.723907,413.213257 379.355133,416.176239 
	C375.710876,420.734711 371.694000,424.902252 367.309631,429.231934 
z"/>
<path fill="#6ABBED" opacity="1.000000" stroke="none" 
	d="
M350.636475,79.507797 
	C361.689087,79.126312 372.379211,79.087433 383.534729,79.107742 
	C382.229950,86.464996 383.401642,93.900192 383.188934,101.255402 
	C382.942902,109.761841 383.391754,118.301384 383.005981,127.217949 
	C372.647552,127.663475 362.287231,127.716942 351.465363,127.689789 
	C349.015869,126.370819 348.884583,124.348953 348.860107,122.337318 
	C348.706726,109.718246 348.704041,97.098679 348.864014,84.479675 
	C348.885010,82.826126 348.931213,81.126442 350.636475,79.507797 
z"/>
<path fill="#8077F9" opacity="1.000000" stroke="none" 
	d="
M140.393021,256.703125 
	C133.627670,256.990448 127.166222,256.547577 121.422050,261.096863 
	C120.169624,258.388947 119.973045,255.432938 119.976036,252.409073 
	C120.012695,215.269241 119.999641,178.129364 119.999146,140.525146 
	C126.356476,140.011703 132.714096,139.962585 139.535278,139.986267 
	C142.135361,141.685547 142.176636,144.053864 142.182938,146.397125 
	C142.276596,181.173203 142.277176,215.949341 142.171692,250.725357 
	C142.165741,252.688980 142.330429,254.768753 140.393021,256.703125 
z"/>
<path fill="#8174F9" opacity="1.000000" stroke="none" 
	d="
M125.381920,127.296692 
	C122.285843,127.660019 119.582550,127.715179 116.434479,127.687454 
	C115.992783,111.764244 115.995850,95.923927 115.998360,79.626358 
	C118.700081,79.128265 121.402344,79.087440 124.551163,79.107727 
	C126.828735,80.487701 127.125015,82.432129 127.147552,84.479279 
	C127.286499,97.098091 127.294601,109.717102 127.136169,122.335640 
	C127.115425,123.987709 127.079735,125.687851 125.381920,127.296692 
z"/>
<path fill="#6AB6ED" opacity="1.000000" stroke="none" 
	d="
M364.037476,412.870911 
	C358.272675,419.061279 351.475067,423.505280 342.411499,424.373016 
	C340.363464,422.694183 339.789734,420.688904 339.816742,418.425385 
	C339.834595,416.929901 339.763184,415.431610 339.763062,413.934265 
	C339.756287,326.087616 339.745880,238.240982 339.806000,150.394379 
	C339.808197,147.161911 338.954834,143.689667 341.648651,140.417206 
	C348.690063,140.013245 355.380402,139.967896 362.535156,139.991028 
	C362.999725,228.604599 362.995667,317.149658 363.023621,405.694733 
	C363.024353,407.984406 362.496429,410.369598 364.037476,412.870911 
z"/>
<path fill="#6CB1EE" opacity="1.000000" stroke="none" 
	d="
M341.535919,139.990128 
	C341.998749,234.482910 341.997803,328.907227 341.993378,423.831421 
	C331.836792,425.388245 326.703857,419.206329 322.848694,410.761444 
	C321.138123,397.840302 321.792725,385.188507 321.784515,372.563263 
	C321.736420,298.672211 321.742523,224.781052 321.809875,150.889999 
	C321.812958,147.495605 320.884796,143.854691 323.650635,140.414581 
	C329.690704,140.012451 335.381409,139.967056 341.535919,139.990128 
z"/>
<path fill="#6FACEF" opacity="1.000000" stroke="none" 
	d="
M323.541748,139.989304 
	C323.999969,227.280121 324.002869,314.502411 323.986053,401.724670 
	C323.985535,404.364990 324.388367,407.070496 322.974091,410.008148 
	C317.479675,400.270935 315.755066,389.020905 313.029633,378.093597 
	C308.527100,360.041595 304.256866,341.931702 299.838593,323.455688 
	C301.190186,319.950378 299.706970,316.841827 299.714874,313.727448 
	C299.799164,280.480652 299.772552,247.233490 299.756470,213.986450 
	C299.755249,211.469955 300.149536,209.026306 300.720245,206.102600 
	C306.958862,195.914917 312.529694,185.996399 314.235016,174.340820 
	C315.694519,164.365250 315.977661,154.445572 312.752289,144.812134 
	C311.294434,140.457794 312.644623,139.503464 316.611969,139.834198 
	C318.756653,140.013000 320.925537,139.901367 323.541748,139.989304 
z"/>
<path fill="#788EF5" opacity="1.000000" stroke="none" 
	d="
M197.647003,140.418945 
	C205.689346,140.012085 213.379608,139.965256 221.534088,139.987961 
	C224.134521,141.681656 224.173706,144.047379 224.182129,146.389389 
	C224.282654,174.319946 224.248535,202.250595 224.207932,230.181229 
	C224.204483,232.554474 223.790787,234.810776 222.267838,237.282013 
	C214.978333,242.703903 208.126266,247.975098 199.592041,251.098297 
	C196.746765,251.233597 196.322556,249.400269 196.009506,247.556183 
	C195.759293,246.082077 195.782471,244.575897 195.780914,243.080811 
	C195.747894,211.351273 195.731110,179.621719 195.809128,147.892288 
	C195.815109,145.462219 195.362457,142.845963 197.647003,140.418945 
z"/>
<path fill="#7695F3" opacity="1.000000" stroke="none" 
	d="
M222.284332,237.571503 
	C221.992920,205.459396 221.996109,173.222916 221.998810,140.521973 
	C230.640533,139.995438 239.282944,139.950012 247.924881,139.858887 
	C249.934464,139.837677 251.462265,140.166000 251.881195,142.582993 
	C256.062958,166.708817 255.402817,190.262024 243.679260,212.506210 
	C238.485657,222.360489 231.275955,230.540787 222.284332,237.571503 
z"/>
<path fill="#7A87F6" opacity="1.000000" stroke="none" 
	d="
M197.535065,139.988037 
	C197.999374,174.753113 197.991425,209.447281 198.020172,244.141449 
	C198.021942,246.266251 197.567856,248.471375 198.964569,250.823059 
	C192.469284,254.818512 185.254654,257.299164 177.400604,259.104614 
	C174.836197,257.694061 174.849106,255.448853 174.841293,253.291351 
	C174.711533,217.497299 174.708603,181.703140 174.844742,145.909088 
	C174.851639,144.097260 174.807083,142.201843 176.647614,140.418304 
	C183.689651,140.011871 190.380356,139.964508 197.535065,139.988037 
z"/>
<path fill="#7C82F7" opacity="1.000000" stroke="none" 
	d="
M176.535324,139.987488 
	C176.999908,179.416885 177.000854,218.774536 177.002838,258.607178 
	C171.036285,261.672638 164.976089,263.240143 158.212158,260.575104 
	C156.039658,258.409454 155.790741,255.966171 155.787308,253.412796 
	C155.739532,217.913620 155.725479,182.414444 155.819611,146.915375 
	C155.825241,144.792267 155.563416,142.522720 157.647415,140.418610 
	C164.023315,140.011337 170.047516,139.963547 176.535324,139.987488 
z"/>
<path fill="#71A5F1" opacity="1.000000" stroke="none" 
	d="
M300.540039,205.831680 
	C302.009644,207.753372 302.009125,210.077881 302.008301,212.423859 
	C301.995880,247.386459 302.011047,282.349060 301.968781,317.311646 
	C301.966522,319.196960 302.703949,321.396027 300.171844,322.921204 
	C295.511322,313.389099 291.704163,303.478668 284.395477,295.457031 
	C281.350189,292.114685 277.909149,289.288574 274.233734,286.197906 
	C273.010040,283.264160 272.759949,280.489777 272.763550,277.656738 
	C272.779602,264.934784 272.759033,252.212769 272.777893,239.490784 
	C272.782074,236.672531 272.759064,233.848724 274.642426,230.926788 
	C284.236145,223.282394 292.920807,215.357605 300.540039,205.831680 
z"/>
<path fill="#7E7CF8" opacity="1.000000" stroke="none" 
	d="
M157.535919,139.986694 
	C157.977615,179.839279 157.956085,219.619446 157.905029,259.898560 
	C152.156113,259.386261 146.436737,258.375000 140.358673,257.190125 
	C139.999802,218.340271 139.999603,179.664093 139.999130,140.523468 
	C145.690125,140.010773 151.381424,139.962524 157.535919,139.986694 
z"/>
<path fill="#7E7FF7" opacity="1.000000" stroke="none" 
	d="
M172.377106,127.302689 
	C162.630402,127.664116 153.276230,127.718918 143.460632,127.690079 
	C141.209305,126.490196 140.912949,124.698082 140.885956,122.818878 
	C140.701996,110.007072 140.695587,97.194946 140.891998,84.383240 
	C140.915054,82.877808 141.067169,81.376640 142.605179,79.914413 
	C152.469254,79.527328 161.814896,80.755241 171.573746,82.139793 
	C173.461990,83.520905 174.088013,85.168076 174.115433,87.084785 
	C174.288406,99.173325 174.341385,111.261841 174.078613,123.349739 
	C174.049408,124.693466 173.787643,125.989807 172.377106,127.302689 
z"/>
<path fill="#6DB2EE" opacity="1.000000" stroke="none" 
	d="
M350.533508,79.106926 
	C350.999634,95.019478 351.000305,110.873756 351.002380,127.168610 
	C342.311249,127.662903 333.618683,127.716637 324.464661,127.688782 
	C322.015259,126.368874 321.884552,124.346924 321.860107,122.335571 
	C321.706818,109.717453 321.704132,97.098831 321.864044,84.480774 
	C321.884979,82.827400 321.930847,81.127762 323.635956,79.509216 
	C332.688416,79.127441 341.378265,79.088051 350.533508,79.106926 
z"/>
<path fill="#7B87F6" opacity="1.000000" stroke="none" 
	d="
M172.447678,127.692787 
	C171.988113,112.787720 171.991653,97.966133 171.993484,82.692368 
	C181.557877,84.042824 191.293716,85.206848 200.092789,89.869377 
	C200.773315,90.229988 201.714325,90.099068 202.845032,90.387405 
	C204.055954,92.152969 204.891739,93.666695 204.933212,95.633080 
	C205.129013,104.918030 204.953400,114.201881 204.996506,123.485779 
	C205.002853,124.853836 204.625305,126.106377 203.302002,127.366119 
	C192.952515,127.672447 182.931656,127.724358 172.447678,127.692787 
z"/>
<path fill="#6EABF0" opacity="1.000000" stroke="none" 
	d="
M323.533203,79.108398 
	C323.999237,95.019936 323.999878,110.873055 324.001892,127.166687 
	C322.185211,127.687660 320.330750,127.564697 318.555298,127.882690 
	C309.333435,129.534378 302.152954,126.737503 297.221863,118.166016 
	C295.506927,114.261566 295.785370,110.441780 295.785004,106.659676 
	C295.784332,99.737465 295.709351,92.814514 295.833679,85.893410 
	C295.871429,83.791695 295.566345,81.548332 297.646942,79.498001 
	C306.355194,79.128174 314.711487,79.089066 323.533203,79.108398 
z"/>
<path fill="#749DF2" opacity="1.000000" stroke="none" 
	d="
M274.531738,230.643234 
	C274.902588,247.414276 274.963165,264.343964 274.967468,281.273621 
	C274.967773,282.572906 274.571167,283.872284 274.197876,285.550415 
	C265.188782,280.104126 255.945755,275.090210 245.352112,271.989380 
	C244.507736,271.409637 243.776443,270.971039 243.689514,270.401367 
	C242.548370,262.924500 241.546341,255.436508 244.717041,247.685303 
	C255.260651,242.714340 264.873505,237.005371 274.531738,230.643234 
z"/>
<path fill="#7C93F5" opacity="1.000000" stroke="none" 
	d="
M203.437134,127.705414 
	C202.844559,115.557854 202.296005,103.493919 203.117981,91.006073 
	C220.413483,96.813789 234.474030,107.086479 243.942078,123.073387 
	C246.593155,127.549797 246.372101,127.850403 241.256317,127.851189 
	C228.804504,127.853081 216.352692,127.813286 203.437134,127.705414 
z"/>
<path fill="#71A3F1" opacity="1.000000" stroke="none" 
	d="
M297.533478,79.108429 
	C297.999207,90.033386 298.027161,100.899620 297.972229,111.765450 
	C297.963165,113.550446 297.589752,115.333588 297.226837,117.492378 
	C287.621490,109.205879 277.097809,102.169594 265.128479,96.710815 
	C261.806519,91.076111 261.968719,85.512558 264.625854,79.518333 
	C275.688110,79.125732 286.378113,79.087654 297.533478,79.108429 
z"/>
<path fill="#8077F9" opacity="1.000000" stroke="none" 
	d="
M142.557434,79.491165 
	C143.005768,95.326096 143.001724,111.024849 142.998444,127.165024 
	C137.303940,127.661415 131.608688,127.716408 125.451279,127.688126 
	C124.992393,111.764351 124.995644,95.923851 124.998306,79.626083 
	C130.700165,79.230881 136.402618,79.292938 142.557434,79.491165 
z"/>
<path fill="#7A95F4" opacity="1.000000" stroke="none" 
	d="
M244.664597,247.367722 
	C245.002380,255.166397 245.001205,263.051117 245.000183,271.393982 
	C226.684921,267.602661 207.996368,266.210693 189.262009,264.708466 
	C208.186829,260.540619 226.610367,255.133972 244.664597,247.367722 
z"/>
<path fill="#7799F3" opacity="1.000000" stroke="none" 
	d="
M264.532837,79.105148 
	C264.971344,84.611420 264.944611,90.059021 264.884399,96.015640 
	C245.001785,88.257942 224.278580,83.120659 203.185852,79.046494 
	C223.479752,79.046494 243.773636,79.046494 264.532837,79.105148 
z"/>
</svg>